<svg xmlns="http://www.w3.org/2000/svg" width="640" height="200" viewBox="0 0 640 200">
<rect width="100%" height="100%" fill="#f4f6f5"/>
<text x="40" y="22" font-family="Georgia, serif" font-size="14">Sprint-highlighted trajectory (synthetic)</text>
<polyline fill="none" stroke="#c2410c" stroke-width="4" points="40.0,100.0 77.3,100.0 114.7,100.0 152.0,100.0 189.3,100.0 226.7,100.0 264.0,100.0 301.3,100.0 338.7,100.0 376.0,100.0 413.3,100.0 450.7,100.0 488.0,100.0 525.3,100.0 562.7,100.0 600.0,100.0"/>
<polyline fill="none" stroke="#134e4a" stroke-width="1.5" points="40.0,100.0 77.3,100.0 114.7,100.0 152.0,100.0 189.3,100.0 226.7,100.0 264.0,100.0 301.3,100.0 338.7,100.0 376.0,100.0 413.3,100.0 450.7,100.0 488.0,100.0 525.3,100.0 562.7,100.0 600.0,100.0"/>
<text x="40" y="192" font-size="10" fill="#444">orange=sprint bout; project_generated definition</text>
</svg>
